<svg width="192" height="192" viewBox="0 0 192 192" fill="none" xmlns="http://www.w3.org/2000/svg">
<rect width="192" height="192" fill="#9553A0"/>
<path d="M24.5837 60.08L19.6637 88H14.0237L18.9837 60.08H24.5837ZM32.9166 81.16C32.8899 81.32 32.8766 81.5333 32.8766 81.8C32.8766 82.3333 33.0232 82.72 33.3166 82.96C33.6366 83.1733 34.1566 83.28 34.8766 83.28H37.5166L36.6766 88H33.1166C29.1166 88 27.1166 86.3333 27.1166 83C27.1166 82.36 27.1699 81.7333 27.2766 81.12L29.1566 70.44H26.5166L27.3166 65.84H29.9966L30.9566 60.36H36.5966L35.6366 65.84H40.5566L39.7566 70.44H34.7966L32.9166 81.16ZM47.3444 60.08H53.2244L47.1444 70.16H43.2644L47.3444 60.08ZM60.36 88.36C58.7333 88.36 57.2533 88.0933 55.92 87.56C54.6133 87 53.5733 86.24 52.8 85.28C52.0533 84.2933 51.68 83.1733 51.68 81.92C51.68 81.7333 51.7067 81.4267 51.76 81H57.2C57.12 81.9333 57.4 82.6933 58.04 83.28C58.68 83.84 59.5867 84.12 60.76 84.12C61.8267 84.12 62.7067 83.9333 63.4 83.56C64.12 83.16 64.48 82.5867 64.48 81.84C64.48 81.1733 64.1467 80.64 63.48 80.24C62.84 79.84 61.8133 79.3867 60.4 78.88C58.9867 78.3733 57.8133 77.88 56.88 77.4C55.9467 76.92 55.1467 76.2533 54.48 75.4C53.8133 74.5467 53.48 73.4667 53.48 72.16C53.48 70.8533 53.8533 69.6933 54.6 68.68C55.3733 67.6667 56.44 66.88 57.8 66.32C59.16 65.76 60.72 65.48 62.48 65.48C64.16 65.48 65.64 65.76 66.92 66.32C68.2 66.88 69.1867 67.6667 69.88 68.68C70.6 69.6667 70.96 70.8 70.96 72.08C70.96 72.4 70.9467 72.64 70.92 72.8H65.72C65.8 71.8667 65.5333 71.12 64.92 70.56C64.3067 70 63.4133 69.72 62.24 69.72C61.28 69.72 60.4933 69.9333 59.88 70.36C59.2667 70.76 58.96 71.3067 58.96 72C58.96 72.6933 59.3067 73.2667 60 73.72C60.6933 74.1467 61.76 74.6267 63.2 75.16C64.64 75.72 65.7867 76.24 66.64 76.72C67.52 77.1733 68.28 77.8133 68.92 78.64C69.56 79.44 69.88 80.4533 69.88 81.68C69.88 83.04 69.4667 84.2267 68.64 85.24C67.8133 86.2533 66.68 87.0267 65.24 87.56C63.8 88.0933 62.1733 88.36 60.36 88.36Z" fill="white"/>
<path d="M74.6369 74C75.1169 71.2533 76.1569 68.8 77.7569 66.64C79.3836 64.4533 81.3702 62.76 83.7169 61.56C86.0902 60.3333 88.6102 59.72 91.2769 59.72C94.3969 59.72 96.9969 60.52 99.0769 62.12C101.157 63.72 102.41 65.9333 102.837 68.76H96.3969C95.9702 67.48 95.2369 66.52 94.1969 65.88C93.1569 65.2133 91.8769 64.88 90.3569 64.88C88.7302 64.88 87.2102 65.2533 85.7969 66C84.4102 66.7467 83.2369 67.8133 82.2769 69.2C81.3436 70.5867 80.7169 72.1867 80.3969 74C80.2636 74.8533 80.1969 75.56 80.1969 76.12C80.1969 78.28 80.8102 79.9867 82.0369 81.24C83.2902 82.4933 84.9836 83.12 87.1169 83.12C88.6369 83.12 90.0369 82.7867 91.3169 82.12C92.5969 81.4533 93.6769 80.48 94.5569 79.2H100.997C99.5569 82.0533 97.5169 84.28 94.8769 85.88C92.2636 87.4533 89.3969 88.24 86.2769 88.24C83.9302 88.24 81.8502 87.7733 80.0369 86.84C78.2502 85.88 76.8636 84.5333 75.8769 82.8C74.8902 81.0667 74.3969 79.08 74.3969 76.84C74.3969 75.9067 74.4769 74.96 74.6369 74ZM104.74 76.84C105.14 74.6 105.927 72.6133 107.1 70.88C108.3 69.1467 109.753 67.8133 111.46 66.88C113.167 65.9467 114.967 65.48 116.86 65.48C118.513 65.48 119.9 65.8133 121.02 66.48C122.167 67.1467 123.007 67.9867 123.54 69L124.1 65.84H129.74L125.82 88H120.18L120.78 84.76C119.9 85.8 118.753 86.6667 117.34 87.36C115.953 88.0267 114.433 88.36 112.78 88.36C111.153 88.36 109.713 88 108.46 87.28C107.207 86.5333 106.233 85.4933 105.54 84.16C104.847 82.8 104.5 81.2267 104.5 79.44C104.5 78.6133 104.58 77.7467 104.74 76.84ZM122.14 76.92C122.247 76.2267 122.3 75.72 122.3 75.4C122.3 73.8267 121.833 72.6 120.9 71.72C119.993 70.84 118.847 70.4 117.46 70.4C116.42 70.4 115.407 70.6533 114.42 71.16C113.46 71.6667 112.62 72.4133 111.9 73.4C111.18 74.36 110.7 75.5067 110.46 76.84C110.38 77.3467 110.34 77.8267 110.34 78.28C110.34 79.88 110.793 81.1467 111.7 82.08C112.607 82.9867 113.753 83.44 115.14 83.44C116.18 83.44 117.193 83.1867 118.18 82.68C119.167 82.1467 120.007 81.3867 120.7 80.4C121.42 79.4133 121.9 78.2533 122.14 76.92ZM143.849 76.92L151.689 88H144.449L138.609 78.6L136.929 88H131.289L136.529 58.4H142.169L139.209 75.2L148.249 65.84H155.569L143.849 76.92ZM168.329 65.48C171.155 65.48 173.395 66.2667 175.049 67.84C176.702 69.3867 177.529 71.48 177.529 74.12C177.529 74.9733 177.462 75.7333 177.329 76.4C177.169 77.2 176.995 77.8933 176.809 78.48H160.609C160.582 78.6667 160.569 78.9333 160.569 79.28C160.569 80.6667 160.969 81.76 161.769 82.56C162.595 83.3333 163.675 83.72 165.009 83.72C166.129 83.72 167.089 83.48 167.889 83C168.715 82.4933 169.382 81.84 169.889 81.04H175.929C174.942 83.1733 173.409 84.9333 171.329 86.32C169.275 87.68 166.942 88.36 164.329 88.36C161.502 88.36 159.235 87.56 157.529 85.96C155.822 84.36 154.969 82.1867 154.969 79.44C154.969 78.64 155.049 77.8 155.209 76.92C155.609 74.6267 156.422 72.6133 157.649 70.88C158.902 69.1467 160.449 67.8133 162.289 66.88C164.129 65.9467 166.142 65.48 168.329 65.48ZM171.769 75.08C171.822 74.6533 171.849 74.3467 171.849 74.16C171.849 72.88 171.435 71.88 170.609 71.16C169.782 70.44 168.702 70.08 167.369 70.08C165.955 70.08 164.689 70.5333 163.569 71.44C162.449 72.32 161.662 73.5333 161.209 75.08H171.769Z" fill="#F782EC"/>
<path d="M100.23 104.08L99.4298 108.48H92.0298L87.8698 132H82.2298L86.3898 108.48H78.9498L79.7498 104.08H100.23ZM106.596 107.2C105.716 107.2 105.009 106.947 104.476 106.44C103.942 105.933 103.676 105.293 103.676 104.52C103.676 103.453 104.076 102.547 104.876 101.8C105.702 101.027 106.662 100.64 107.756 100.64C108.609 100.64 109.302 100.893 109.836 101.4C110.369 101.907 110.636 102.547 110.636 103.32C110.636 104.387 110.236 105.307 109.436 106.08C108.636 106.827 107.689 107.2 106.596 107.2ZM108.916 109.84L104.996 132H99.3558L103.276 109.84H108.916ZM142.009 109.52C144.355 109.52 146.209 110.147 147.569 111.4C148.929 112.653 149.609 114.427 149.609 116.72C149.609 117.573 149.542 118.333 149.409 119L147.089 132H141.529L143.689 119.76C143.769 119.28 143.809 118.813 143.809 118.36C143.809 117.08 143.449 116.107 142.729 115.44C142.035 114.747 141.035 114.4 139.729 114.4C138.182 114.4 136.875 114.867 135.809 115.8C134.742 116.707 134.075 118.027 133.809 119.76V119.72L131.609 132H126.049L128.209 119.76C128.289 119.28 128.329 118.827 128.329 118.4C128.329 117.093 127.969 116.107 127.249 115.44C126.529 114.747 125.515 114.4 124.209 114.4C122.742 114.4 121.475 114.84 120.409 115.72C119.369 116.573 118.689 117.8 118.369 119.4L116.129 132H110.489L114.409 109.84H120.049L119.569 112.48C120.449 111.573 121.502 110.853 122.729 110.32C123.955 109.787 125.249 109.52 126.609 109.52C128.342 109.52 129.822 109.893 131.049 110.64C132.275 111.36 133.142 112.4 133.649 113.76C134.582 112.48 135.795 111.453 137.289 110.68C138.809 109.907 140.382 109.52 142.009 109.52ZM166.083 109.48C168.909 109.48 171.149 110.267 172.803 111.84C174.456 113.387 175.283 115.48 175.283 118.12C175.283 118.973 175.216 119.733 175.083 120.4C174.923 121.2 174.749 121.893 174.563 122.48H158.363C158.336 122.667 158.323 122.933 158.323 123.28C158.323 124.667 158.723 125.76 159.523 126.56C160.349 127.333 161.429 127.72 162.763 127.72C163.883 127.72 164.843 127.48 165.643 127C166.469 126.493 167.136 125.84 167.643 125.04H173.683C172.696 127.173 171.163 128.933 169.083 130.32C167.029 131.68 164.696 132.36 162.083 132.36C159.256 132.36 156.989 131.56 155.283 129.96C153.576 128.36 152.723 126.187 152.723 123.44C152.723 122.64 152.803 121.8 152.963 120.92C153.363 118.627 154.176 116.613 155.403 114.88C156.656 113.147 158.203 111.813 160.043 110.88C161.883 109.947 163.896 109.48 166.083 109.48ZM169.523 119.08C169.576 118.653 169.603 118.347 169.603 118.16C169.603 116.88 169.189 115.88 168.363 115.16C167.536 114.44 166.456 114.08 165.123 114.08C163.709 114.08 162.443 114.533 161.323 115.44C160.203 116.32 159.416 117.533 158.963 119.08H169.523Z" fill="white"/>
</svg>
