<svg width="1242" height="2436" viewBox="0 0 1242 2436" fill="none" xmlns="http://www.w3.org/2000/svg">
<g clip-path="url(#clip0)">
<rect width="1242" height="2436" fill="#9553A0"/>
<path d="M248.481 1030.23L222.792 1176H193.345L219.242 1030.23H248.481ZM291.987 1140.29C291.848 1141.12 291.779 1142.24 291.779 1143.63C291.779 1146.41 292.544 1148.43 294.076 1149.69C295.747 1150.8 298.462 1151.36 302.221 1151.36H316.005L311.619 1176H293.032C272.147 1176 261.705 1167.3 261.705 1149.89C261.705 1146.55 261.983 1143.28 262.54 1140.08L272.356 1084.32H258.572L262.749 1060.3H276.742L281.754 1031.69H311.201L306.189 1060.3H331.877L327.7 1084.32H301.803L291.987 1140.29ZM367.317 1030.23H398.018L366.273 1082.85H346.015L367.317 1030.23ZM435.274 1177.88C426.781 1177.88 419.053 1176.49 412.092 1173.7C405.27 1170.78 399.84 1166.81 395.802 1161.8C391.903 1156.65 389.954 1150.8 389.954 1144.26C389.954 1143.28 390.093 1141.68 390.372 1139.45H418.775C418.357 1144.32 419.819 1148.29 423.161 1151.36C426.502 1154.28 431.236 1155.74 437.362 1155.74C442.932 1155.74 447.526 1154.77 451.146 1152.82C454.905 1150.73 456.785 1147.74 456.785 1143.84C456.785 1140.36 455.045 1137.57 451.564 1135.48C448.222 1133.4 442.862 1131.03 435.483 1128.38C428.103 1125.74 421.977 1123.16 417.104 1120.66C412.231 1118.15 408.054 1114.67 404.573 1110.21C401.093 1105.76 399.352 1100.12 399.352 1093.3C399.352 1086.47 401.302 1080.42 405.2 1075.13C409.238 1069.84 414.807 1065.73 421.908 1062.81C429.008 1059.88 437.153 1058.42 446.343 1058.42C455.114 1058.42 462.842 1059.88 469.525 1062.81C476.208 1065.73 481.359 1069.84 484.979 1075.13C488.738 1080.28 490.618 1086.2 490.618 1092.88C490.618 1094.55 490.548 1095.8 490.409 1096.64H463.259C463.677 1091.77 462.285 1087.87 459.082 1084.94C455.88 1082.02 451.216 1080.56 445.09 1080.56C440.077 1080.56 435.97 1081.67 432.768 1083.9C429.565 1085.99 427.964 1088.84 427.964 1092.46C427.964 1096.08 429.774 1099.07 433.394 1101.44C437.014 1103.67 442.583 1106.18 450.102 1108.96C457.62 1111.88 463.607 1114.6 468.063 1117.11C472.657 1119.47 476.625 1122.81 479.967 1127.13C483.308 1131.31 484.979 1136.6 484.979 1143C484.979 1150.1 482.821 1156.3 478.505 1161.59C474.189 1166.88 468.272 1170.92 460.753 1173.7C453.235 1176.49 444.742 1177.88 435.274 1177.88Z" fill="white"/>
<path d="M509.816 1102.9C512.322 1088.56 517.752 1075.75 526.106 1064.48C534.599 1053.06 544.971 1044.22 557.224 1037.95C569.615 1031.55 582.773 1028.35 596.696 1028.35C612.986 1028.35 626.561 1032.52 637.421 1040.88C648.281 1049.23 654.824 1060.79 657.052 1075.54H623.428C621.2 1068.86 617.371 1063.85 611.941 1060.51C606.511 1057.03 599.828 1055.29 591.892 1055.29C583.399 1055.29 575.463 1057.24 568.084 1061.13C560.844 1065.03 554.718 1070.6 549.705 1077.84C544.832 1085.08 541.56 1093.44 539.889 1102.9C539.193 1107.36 538.845 1111.05 538.845 1113.97C538.845 1125.25 542.048 1134.16 548.452 1140.7C554.996 1147.25 563.837 1150.52 574.976 1150.52C582.912 1150.52 590.221 1148.78 596.904 1145.3C603.588 1141.82 609.226 1136.74 613.821 1130.05H647.445C639.927 1144.95 629.276 1156.58 615.492 1164.93C601.847 1173.15 586.88 1177.25 570.59 1177.25C558.338 1177.25 547.478 1174.82 538.01 1169.94C528.681 1164.93 521.441 1157.9 516.29 1148.85C511.138 1139.8 508.563 1129.43 508.563 1117.73C508.563 1112.86 508.98 1107.92 509.816 1102.9ZM666.989 1117.73C669.077 1106.04 673.184 1095.66 679.311 1086.61C685.576 1077.56 693.164 1070.6 702.075 1065.73C710.986 1060.86 720.384 1058.42 730.269 1058.42C738.901 1058.42 746.141 1060.16 751.989 1063.64C757.976 1067.12 762.362 1071.51 765.146 1076.8L768.07 1060.3H797.517L777.051 1176H747.603L750.736 1159.08C746.141 1164.51 740.154 1169.04 732.775 1172.66C725.535 1176.14 717.599 1177.88 708.967 1177.88C700.474 1177.88 692.955 1176 686.411 1172.24C679.867 1168.34 674.786 1162.91 671.166 1155.95C667.546 1148.85 665.736 1140.64 665.736 1131.31C665.736 1126.99 666.153 1122.47 666.989 1117.73ZM757.837 1118.15C758.394 1114.53 758.672 1111.88 758.672 1110.21C758.672 1102 756.236 1095.59 751.362 1091C746.629 1086.4 740.642 1084.11 733.402 1084.11C727.972 1084.11 722.681 1085.43 717.529 1088.08C712.517 1090.72 708.131 1094.62 704.372 1099.77C700.613 1104.78 698.107 1110.77 696.854 1117.73C696.436 1120.38 696.227 1122.88 696.227 1125.25C696.227 1133.6 698.594 1140.22 703.328 1145.09C708.062 1149.82 714.049 1152.19 721.289 1152.19C726.719 1152.19 732.009 1150.87 737.161 1148.22C742.312 1145.44 746.698 1141.47 750.318 1136.32C754.077 1131.17 756.584 1125.11 757.837 1118.15ZM871.185 1118.15L912.119 1176H874.317L843.826 1126.92L835.054 1176H805.607L832.966 1021.45H862.413L846.959 1109.17L894.158 1060.3H932.377L871.185 1118.15ZM998.995 1058.42C1013.75 1058.42 1025.45 1062.53 1034.08 1070.74C1042.71 1078.82 1047.03 1089.75 1047.03 1103.53C1047.03 1107.99 1046.68 1111.95 1045.99 1115.43C1045.15 1119.61 1044.25 1123.23 1043.27 1126.29H958.688C958.549 1127.27 958.479 1128.66 958.479 1130.47C958.479 1137.71 960.568 1143.42 964.745 1147.6C969.061 1151.63 974.7 1153.65 981.661 1153.65C987.509 1153.65 992.521 1152.4 996.698 1149.89C1001.01 1147.25 1004.49 1143.84 1007.14 1139.66H1038.68C1033.52 1150.8 1025.52 1159.99 1014.66 1167.23C1003.94 1174.33 991.755 1177.88 978.111 1177.88C963.352 1177.88 951.518 1173.7 942.607 1165.35C933.696 1156.99 929.241 1145.65 929.241 1131.31C929.241 1127.13 929.658 1122.74 930.494 1118.15C932.582 1106.18 936.829 1095.66 943.233 1086.61C949.777 1077.56 957.853 1070.6 967.46 1065.73C977.066 1060.86 987.578 1058.42 998.995 1058.42ZM1016.96 1108.54C1017.23 1106.31 1017.37 1104.71 1017.37 1103.74C1017.37 1097.06 1015.22 1091.83 1010.9 1088.08C1006.58 1084.32 1000.94 1082.44 993.983 1082.44C986.604 1082.44 979.99 1084.8 974.143 1089.54C968.295 1094.13 964.188 1100.47 961.821 1108.54H1016.96Z" fill="#F782EC"/>
<path d="M643.44 1259.96L639.263 1282.93H600.627L578.907 1405.73H549.46L571.18 1282.93H532.334L536.511 1259.96H643.44ZM676.678 1276.25C672.083 1276.25 668.394 1274.92 665.609 1272.28C662.824 1269.63 661.432 1266.29 661.432 1262.25C661.432 1256.68 663.521 1251.95 667.698 1248.05C672.014 1244.01 677.026 1242 682.734 1242C687.19 1242 690.81 1243.32 693.594 1245.96C696.379 1248.61 697.771 1251.95 697.771 1255.99C697.771 1261.56 695.683 1266.36 691.506 1270.4C687.329 1274.3 682.386 1276.25 676.678 1276.25ZM688.791 1290.03L668.324 1405.73H638.877L659.344 1290.03H688.791ZM861.574 1288.36C873.826 1288.36 883.503 1291.63 890.603 1298.17C897.704 1304.72 901.254 1313.98 901.254 1325.95C901.254 1330.41 900.906 1334.37 900.21 1337.86L888.097 1405.73H859.068L870.345 1341.82C870.763 1339.32 870.972 1336.88 870.972 1334.51C870.972 1327.83 869.092 1322.75 865.333 1319.27C861.713 1315.65 856.492 1313.84 849.669 1313.84C841.594 1313.84 834.772 1316.27 829.203 1321.15C823.633 1325.88 820.153 1332.77 818.76 1341.82V1341.61L807.274 1405.73H778.244L789.522 1341.82C789.939 1339.32 790.148 1336.95 790.148 1334.72C790.148 1327.9 788.269 1322.75 784.509 1319.27C780.75 1315.65 775.459 1313.84 768.637 1313.84C760.979 1313.84 754.366 1316.14 748.797 1320.73C743.367 1325.19 739.816 1331.59 738.146 1339.94L726.45 1405.73H697.003L717.47 1290.03H746.917L744.411 1303.81C749.006 1299.08 754.505 1295.32 760.91 1292.54C767.314 1289.75 774.067 1288.36 781.168 1288.36C790.218 1288.36 797.945 1290.31 804.35 1294.21C810.754 1297.97 815.279 1303.4 817.925 1310.5C822.798 1303.81 829.133 1298.45 836.93 1294.42C844.866 1290.38 853.081 1288.36 861.574 1288.36ZM987.268 1288.15C1002.03 1288.15 1013.72 1292.26 1022.35 1300.47C1030.99 1308.55 1035.3 1319.48 1035.3 1333.26C1035.3 1337.72 1034.95 1341.68 1034.26 1345.17C1033.42 1349.34 1032.52 1352.96 1031.54 1356.03H946.961C946.822 1357 946.752 1358.39 946.752 1360.2C946.752 1367.44 948.84 1373.15 953.017 1377.33C957.333 1381.37 962.972 1383.38 969.934 1383.38C975.782 1383.38 980.794 1382.13 984.971 1379.62C989.287 1376.98 992.768 1373.57 995.413 1369.39H1026.95C1021.8 1380.53 1013.79 1389.72 1002.93 1396.96C992.211 1404.06 980.028 1407.61 966.383 1407.61C951.625 1407.61 939.79 1403.43 930.88 1395.08C921.969 1386.73 917.513 1375.38 917.513 1361.04C917.513 1356.86 917.931 1352.47 918.767 1347.88C920.855 1335.91 925.102 1325.39 931.506 1316.34C938.05 1307.29 946.125 1300.33 955.732 1295.46C965.339 1290.59 975.851 1288.15 987.268 1288.15ZM1005.23 1338.27C1005.51 1336.05 1005.65 1334.44 1005.65 1333.47C1005.65 1326.79 1003.49 1321.57 999.172 1317.81C994.856 1314.05 989.217 1312.17 982.256 1312.17C974.877 1312.17 968.263 1314.53 962.415 1319.27C956.568 1323.86 952.46 1330.2 950.093 1338.27H1005.23Z" fill="white"/>
</g>
<defs>
<clipPath id="clip0">
<rect width="1242" height="2436" fill="white"/>
</clipPath>
</defs>
</svg>
