<svg width="125" height="78" viewBox="0 0 125 78" fill="none" xmlns="http://www.w3.org/2000/svg">
<path d="M8.68781 12.06L4.99781 33H0.767809L4.48781 12.06H8.68781ZM14.9374 27.87C14.9174 27.99 14.9074 28.15 14.9074 28.35C14.9074 28.75 15.0174 29.04 15.2374 29.22C15.4774 29.38 15.8674 29.46 16.4074 29.46H18.3874L17.7574 33H15.0874C12.0874 33 10.5874 31.75 10.5874 29.25C10.5874 28.77 10.6274 28.3 10.7074 27.84L12.1174 19.83H10.1374L10.7374 16.38H12.7474L13.4674 12.27H17.6974L16.9774 16.38H20.6674L20.0674 19.83H16.3474L14.9374 27.87ZM25.7583 12.06H30.1683L25.6083 19.62H22.6983L25.7583 12.06ZM35.52 33.27C34.3 33.27 33.19 33.07 32.19 32.67C31.21 32.25 30.43 31.68 29.85 30.96C29.29 30.22 29.01 29.38 29.01 28.44C29.01 28.3 29.03 28.07 29.07 27.75H33.15C33.09 28.45 33.3 29.02 33.78 29.46C34.26 29.88 34.94 30.09 35.82 30.09C36.62 30.09 37.28 29.95 37.8 29.67C38.34 29.37 38.61 28.94 38.61 28.38C38.61 27.88 38.36 27.48 37.86 27.18C37.38 26.88 36.61 26.54 35.55 26.16C34.49 25.78 33.61 25.41 32.91 25.05C32.21 24.69 31.61 24.19 31.11 23.55C30.61 22.91 30.36 22.1 30.36 21.12C30.36 20.14 30.64 19.27 31.2 18.51C31.78 17.75 32.58 17.16 33.6 16.74C34.62 16.32 35.79 16.11 37.11 16.11C38.37 16.11 39.48 16.32 40.44 16.74C41.4 17.16 42.14 17.75 42.66 18.51C43.2 19.25 43.47 20.1 43.47 21.06C43.47 21.3 43.46 21.48 43.44 21.6H39.54C39.6 20.9 39.4 20.34 38.94 19.92C38.48 19.5 37.81 19.29 36.93 19.29C36.21 19.29 35.62 19.45 35.16 19.77C34.7 20.07 34.47 20.48 34.47 21C34.47 21.52 34.73 21.95 35.25 22.29C35.77 22.61 36.57 22.97 37.65 23.37C38.73 23.79 39.59 24.18 40.23 24.54C40.89 24.88 41.46 25.36 41.94 25.98C42.42 26.58 42.66 27.34 42.66 28.26C42.66 29.28 42.35 30.17 41.73 30.93C41.11 31.69 40.26 32.27 39.18 32.67C38.1 33.07 36.88 33.27 35.52 33.27Z" fill="white"/>
<path d="M46.2277 22.5C46.5877 20.44 47.3677 18.6 48.5677 16.98C49.7877 15.34 51.2777 14.07 53.0377 13.17C54.8177 12.25 56.7077 11.79 58.7077 11.79C61.0477 11.79 62.9977 12.39 64.5577 13.59C66.1177 14.79 67.0577 16.45 67.3777 18.57H62.5477C62.2277 17.61 61.6777 16.89 60.8977 16.41C60.1177 15.91 59.1577 15.66 58.0177 15.66C56.7977 15.66 55.6577 15.94 54.5977 16.5C53.5577 17.06 52.6777 17.86 51.9577 18.9C51.2577 19.94 50.7877 21.14 50.5477 22.5C50.4477 23.14 50.3977 23.67 50.3977 24.09C50.3977 25.71 50.8577 26.99 51.7777 27.93C52.7177 28.87 53.9877 29.34 55.5877 29.34C56.7277 29.34 57.7777 29.09 58.7377 28.59C59.6977 28.09 60.5077 27.36 61.1677 26.4H65.9977C64.9177 28.54 63.3877 30.21 61.4077 31.41C59.4477 32.59 57.2977 33.18 54.9577 33.18C53.1977 33.18 51.6377 32.83 50.2777 32.13C48.9377 31.41 47.8977 30.4 47.1577 29.1C46.4177 27.8 46.0477 26.31 46.0477 24.63C46.0477 23.93 46.1077 23.22 46.2277 22.5ZM68.805 24.63C69.105 22.95 69.695 21.46 70.575 20.16C71.475 18.86 72.565 17.86 73.845 17.16C75.125 16.46 76.475 16.11 77.895 16.11C79.135 16.11 80.175 16.36 81.015 16.86C81.875 17.36 82.505 17.99 82.905 18.75L83.325 16.38H87.555L84.615 33H80.385L80.835 30.57C80.175 31.35 79.315 32 78.255 32.52C77.215 33.02 76.075 33.27 74.835 33.27C73.615 33.27 72.535 33 71.595 32.46C70.655 31.9 69.925 31.12 69.405 30.12C68.885 29.1 68.625 27.92 68.625 26.58C68.625 25.96 68.685 25.31 68.805 24.63ZM81.855 24.69C81.935 24.17 81.975 23.79 81.975 23.55C81.975 22.37 81.625 21.45 80.925 20.79C80.245 20.13 79.385 19.8 78.345 19.8C77.565 19.8 76.805 19.99 76.065 20.37C75.345 20.75 74.715 21.31 74.175 22.05C73.635 22.77 73.275 23.63 73.095 24.63C73.035 25.01 73.005 25.37 73.005 25.71C73.005 26.91 73.345 27.86 74.025 28.56C74.705 29.24 75.565 29.58 76.605 29.58C77.385 29.58 78.145 29.39 78.885 29.01C79.625 28.61 80.255 28.04 80.775 27.3C81.315 26.56 81.675 25.69 81.855 24.69ZM98.137 24.69L104.017 33H98.587L94.207 25.95L92.947 33H88.717L92.647 10.8H96.877L94.657 23.4L101.437 16.38H106.927L98.137 24.69ZM116.497 16.11C118.617 16.11 120.297 16.7 121.537 17.88C122.777 19.04 123.397 20.61 123.397 22.59C123.397 23.23 123.347 23.8 123.247 24.3C123.127 24.9 122.997 25.42 122.857 25.86H110.707C110.687 26 110.677 26.2 110.677 26.46C110.677 27.5 110.977 28.32 111.577 28.92C112.197 29.5 113.007 29.79 114.007 29.79C114.847 29.79 115.567 29.61 116.167 29.25C116.787 28.87 117.287 28.38 117.667 27.78H122.197C121.457 29.38 120.307 30.7 118.747 31.74C117.207 32.76 115.457 33.27 113.497 33.27C111.377 33.27 109.677 32.67 108.397 31.47C107.117 30.27 106.477 28.64 106.477 26.58C106.477 25.98 106.537 25.35 106.657 24.69C106.957 22.97 107.567 21.46 108.487 20.16C109.427 18.86 110.587 17.86 111.967 17.16C113.347 16.46 114.857 16.11 116.497 16.11ZM119.077 23.31C119.117 22.99 119.137 22.76 119.137 22.62C119.137 21.66 118.827 20.91 118.207 20.37C117.587 19.83 116.777 19.56 115.777 19.56C114.717 19.56 113.767 19.9 112.927 20.58C112.087 21.24 111.497 22.15 111.157 23.31H119.077Z" fill="#F782EC"/>
<path d="M65.4224 45.06L64.8224 48.36H59.2724L56.1524 66H51.9224L55.0424 48.36H49.4624L50.0624 45.06H65.4224ZM70.1968 47.4C69.5368 47.4 69.0068 47.21 68.6068 46.83C68.2068 46.45 68.0068 45.97 68.0068 45.39C68.0068 44.59 68.3068 43.91 68.9068 43.35C69.5268 42.77 70.2468 42.48 71.0668 42.48C71.7068 42.48 72.2268 42.67 72.6268 43.05C73.0268 43.43 73.2268 43.91 73.2268 44.49C73.2268 45.29 72.9268 45.98 72.3268 46.56C71.7268 47.12 71.0168 47.4 70.1968 47.4ZM71.9368 49.38L68.9968 66H64.7668L67.7068 49.38H71.9368ZM96.7564 49.14C98.5164 49.14 99.9064 49.61 100.926 50.55C101.946 51.49 102.456 52.82 102.456 54.54C102.456 55.18 102.406 55.75 102.306 56.25L100.566 66H96.3964L98.0164 56.82C98.0764 56.46 98.1064 56.11 98.1064 55.77C98.1064 54.81 97.8364 54.08 97.2964 53.58C96.7764 53.06 96.0264 52.8 95.0464 52.8C93.8864 52.8 92.9064 53.15 92.1064 53.85C91.3064 54.53 90.8064 55.52 90.6064 56.82V56.79L88.9564 66H84.7864L86.4064 56.82C86.4664 56.46 86.4964 56.12 86.4964 55.8C86.4964 54.82 86.2264 54.08 85.6864 53.58C85.1464 53.06 84.3864 52.8 83.4064 52.8C82.3064 52.8 81.3564 53.13 80.5564 53.79C79.7764 54.43 79.2664 55.35 79.0264 56.55L77.3464 66H73.1164L76.0564 49.38H80.2864L79.9264 51.36C80.5864 50.68 81.3764 50.14 82.2964 49.74C83.2164 49.34 84.1864 49.14 85.2064 49.14C86.5064 49.14 87.6164 49.42 88.5364 49.98C89.4564 50.52 90.1064 51.3 90.4864 52.32C91.1864 51.36 92.0964 50.59 93.2164 50.01C94.3564 49.43 95.5364 49.14 96.7564 49.14ZM114.812 49.11C116.932 49.11 118.612 49.7 119.852 50.88C121.092 52.04 121.712 53.61 121.712 55.59C121.712 56.23 121.662 56.8 121.562 57.3C121.442 57.9 121.312 58.42 121.172 58.86H109.022C109.002 59 108.992 59.2 108.992 59.46C108.992 60.5 109.292 61.32 109.892 61.92C110.512 62.5 111.322 62.79 112.322 62.79C113.162 62.79 113.882 62.61 114.482 62.25C115.102 61.87 115.602 61.38 115.982 60.78H120.512C119.772 62.38 118.622 63.7 117.062 64.74C115.522 65.76 113.772 66.27 111.812 66.27C109.692 66.27 107.992 65.67 106.712 64.47C105.432 63.27 104.792 61.64 104.792 59.58C104.792 58.98 104.852 58.35 104.972 57.69C105.272 55.97 105.882 54.46 106.802 53.16C107.742 51.86 108.902 50.86 110.282 50.16C111.662 49.46 113.172 49.11 114.812 49.11ZM117.392 56.31C117.432 55.99 117.452 55.76 117.452 55.62C117.452 54.66 117.142 53.91 116.522 53.37C115.902 52.83 115.092 52.56 114.092 52.56C113.032 52.56 112.082 52.9 111.242 53.58C110.402 54.24 109.812 55.15 109.472 56.31H117.392Z" fill="white"/>
</svg>
